<?xml version="1.0" standalone="no"?><!DOCTYPE svg PUBLIC "-//W3C//DTD SVG 1.1//EN" "http://www.w3.org/Graphics/SVG/1.1/DTD/svg11.dtd"><svg t="1604936358670" class="icon" viewBox="0 0 1024 1024" version="1.1" xmlns="http://www.w3.org/2000/svg" p-id="1608" xmlns:xlink="http://www.w3.org/1999/xlink" width="64" height="64"><defs><style type="text/css"></style></defs><path d="M532.978 92.111c283.445 0 297.385 270.677 297.385 270.677 42.997 56.935 19.766 108.043 19.766 108.043 138.24 217.252 48.797 280.017 24.4 284.645-24.4 4.628-47.653-26.737-47.653-26.737s-8.109 31.34-27.881 47.648c72.051 33.654 59.251 75.502 59.251 75.502s-15.11 126.342-314.811 46.478l-25.567-4.654c-287.257 103.683-322.955-36.022-322.955-36.022s-11.626-58.056 44.136-80.161c-32.538-19.766-44.136-61.566-44.136-61.566s-29.056 47.622-67.388 30.2c-38.339-17.425-61.565-171.92 82.476-283.444 0 0-20.888-66.222 26.735-105.73 0 0 12.796-264.879 296.242-264.879M280.873 372.1c-62.734 53.425-20.91 106.898-20.91 106.898-138.239 84.815-113.842 221.882-113.842 221.882s22.053-11.053 37.736-42.991c15.685-31.942 40.083 5.227 40.083 5.227s15.11 73.191 61.372 101.861c46.265 28.672-2.039 46.965-2.039 46.965s-50.923 0.74-46.538 35.318c4.381 34.58 168.63 77.874 267.191 1.169l52.273 6.972c171.952 59.798 256.74 4.03 262.403-6.668 5.664-10.699-25.973-31.696-55.054-43.865-29.084-12.175-36.565-25-10.839-42.127 25.73-17.122 35.889-51.107 50.947-86.284 15.052-35.181 37.735-17.997 40.653-8.109 2.912 9.882 24.395 42.962 24.395 42.962s56.01-59.356-60.419-234.654c0 0 25.268-52.524-17.429-95.243 0 0-10.429-246.305-262.559-246.305-252.13-0.001-247.422 236.991-247.422 236.991z" p-id="1609"></path></svg>